#N canvas -8 0 1185 786 10;
#X obj 10 300 cnv 15 300 251 empty empty empty 20 12 0 14 #d7e7ea #404040
0;
#X obj 10 20 cnv 15 257 250 empty empty empty 20 12 0 14 #ecefd1 #404040
0;
#X obj 400 360 cnv 15 330 70 empty empty empty 20 12 0 14 #efd1ee #404040
0;
#X obj 400 260 cnv 15 325 79 empty empty empty 20 12 0 14 #efd1d1 #404040
0;
#X obj 400 170 cnv 15 324 70 empty empty empty 20 12 0 14 #ecefd1 #404040
0;
#X obj 400 80 cnv 15 321 70 empty empty empty 20 12 0 14 #d7e7ea #404040
0;
#X obj 400 20 cnv 15 323 40 empty empty empty 20 12 0 14 #e8d8e9 #404040
0;
#X obj 30 140 oscparse;
#X obj 30 112 netreceive -u -b;
#X msg 42 85 listen 0;
#X text 131 84 stop listening;
#X text 169 112 UDP packets \, binary output, f 13;
#X obj 30 30 loadbang;
#X msg 30 57 listen 9999;
#X text 132 57 listen on port 9999;
#X obj 30 170 route list;
#X obj 30 210 route gyrosc;
#X obj 30 240 s gyrosc;
#X obj 20 520 send, f 13;
#X obj 20 310 r gyrosc;
#X obj 20 350 zl rev;
#X obj 20 430 zl rev;
#X text 70 350 reverse message for downstream timing;
#X text 90 390 strip osc arg;
#X text 100 430 (un)reverse array of values;
#X obj 670 90 r gyro;
#X obj 410 30 r accel;
#X obj 540 30 r comp;
#X obj 410 370 r rmatrix;
#X obj 480 90 r rrate;
#X obj 410 180 r quat;
#X obj 610 90 r grav;
#X obj 550 90 r mag;
#X obj 410 270 r gps;
#X obj 480 30 r alt;
#X obj 410 90 r ipport;
#X floatatom 750 210 5 0 0 0 - - -, f 5;
#X floatatom 790 210 5 0 0 0 - - -, f 5;
#X floatatom 830 210 5 0 0 0 - - -, f 5;
#X obj 20 390 zl ecils 1;
#X obj 80 480 symbol;
#X text 130 480 be explicit to please pd;
#X obj 750 180 unpack 0 0 0 0, f 20;
#X floatatom 870 210 5 0 0 0 - - -, f 5;
#X floatatom 750 400 5 0 0 0 - - -, f 5;
#X floatatom 790 400 5 0 0 0 - - -, f 5;
#X floatatom 830 400 5 0 0 0 - - -, f 5;
#X floatatom 870 400 5 0 0 0 - - -, f 5;
#X obj 750 370 unpack 0 0 0 0 0 0 0 0 0, f 54;
#X floatatom 910 400 5 0 0 0 - - -, f 5;
#X floatatom 950 400 5 0 0 0 - - -, f 5;
#X floatatom 990 400 5 0 0 0 - - -, f 5;
#X floatatom 1030 400 5 0 0 0 - - -, f 5;
#X floatatom 1070 400 5 0 0 0 - - -, f 5;
#X floatatom 750 120 5 0 0 0 - - -, f 5;
#X floatatom 790 120 5 0 0 0 - - -, f 5;
#X floatatom 830 120 5 0 0 0 - - -, f 5;
#X obj 750 90 unpack 0 0 0, f 14;
#X floatatom 750 300 5 0 0 0 - - -, f 5;
#X floatatom 790 300 5 0 0 0 - - -, f 5;
#X floatatom 830 300 5 0 0 0 - - -, f 5;
#X floatatom 870 300 5 0 0 0 - - -, f 5;
#X obj 750 270 unpack 0 0 0 0 0 0, f 34;
#X floatatom 910 300 5 0 0 0 - - -, f 5;
#X floatatom 950 300 5 0 0 0 - - -, f 5;
#X floatatom 750 30 5 0 0 0 - - -, f 5;
#X text 510 500 🌥 2022 bob@zeal.co;
#X connect 7 0 15 0;
#X connect 8 0 7 0;
#X connect 9 0 8 0;
#X connect 12 0 13 0;
#X connect 13 0 8 0;
#X connect 15 0 16 0;
#X connect 16 0 17 0;
#X connect 19 0 20 0;
#X connect 20 0 39 0;
#X connect 21 0 18 0;
#X connect 39 0 21 0;
#X connect 39 1 40 0;
#X connect 40 0 18 1;
#X connect 42 0 36 0;
#X connect 42 1 37 0;
#X connect 42 2 38 0;
#X connect 42 3 43 0;
#X connect 48 0 44 0;
#X connect 48 1 45 0;
#X connect 48 2 46 0;
#X connect 48 3 47 0;
#X connect 48 4 49 0;
#X connect 48 5 50 0;
#X connect 48 6 51 0;
#X connect 48 7 52 0;
#X connect 48 8 53 0;
#X connect 57 0 54 0;
#X connect 57 1 55 0;
#X connect 57 2 56 0;
#X connect 62 0 58 0;
#X connect 62 1 59 0;
#X connect 62 2 60 0;
#X connect 62 3 61 0;
#X connect 62 4 63 0;
#X connect 62 5 64 0;
